<svg xmlns="http://www.w3.org/2000/svg" width="882.632" height="2069.301" viewBox="0 0 882.632 2069.301">
  <g id="Road_map_flow_lines" data-name="Road map flow lines" transform="translate(-278.385 -1736.699)">
    <path id="Path_1" data-name="Path 1" d="M2035.975,1395.7H1641.14l4.3,15.692-17.238-4.517,3.756,2005.357h-13.2L1615,1397.249l1.528-1.547,6.441-6.516,5.234-5.3,1.377-1.386h406.4Z" transform="translate(-903.959 364.401)" fill="#333"/>
    <path id="Path_3" data-name="Path 3" d="M1615,1395.7h394.835l-4.3,15.692,17.238-4.517h0l7.842-.034v-9.628l-1.528-1.547-1.081-6.482-5.234-5.3-1.377-1.386H1615Z" transform="translate(-1307.615 1192.706)" fill="#333"/>
    <path id="Path_4" data-name="Path 4" d="M2030.615,1395.7H1635.78l4.3,15.692-17.238-4.517h0l-7.842-.034v-9.628l1.528-1.547,1.081-6.482,5.234-5.3,1.377-1.386h406.4Z" transform="translate(-902 971.706)" fill="#333"/>
    <path id="Path_5" data-name="Path 5" d="M2030.615,1395.7H1635.78l4.3,15.692-17.238-4.517h0l-7.842-.034v-9.628l1.528-1.547,1.081-6.482,5.234-5.3,1.377-1.386h406.4Z" transform="translate(-901 1593.069)" fill="#333"/>
    <path id="Path_2" data-name="Path 2" d="M1615,1395.7h394.835l-4.3,15.692,17.238-4.517h0l7.842-.034v-9.628l-1.528-1.547-1.081-6.482-5.234-5.3-1.377-1.386H1615Z" transform="translate(-1306.903 588.706)" fill="#333"/>
    <path id="Union_2" data-name="Union 2" d="M-1603,29l16.5-29,16.5,29-16.5,29Z" transform="translate(1100.615 1394.5) rotate(-90)" fill="#333"/>
    <path id="Union_3" data-name="Union 3" d="M-1603,29l16.5-29,16.5,29-16.5,29Z" transform="translate(278.385 1603.5) rotate(-90)" fill="#333"/>
    <path id="Union_4" data-name="Union 4" d="M-1603,29l16.5-29,16.5,29-16.5,29Z" transform="translate(1099.615 773.961) rotate(-90)" fill="#333"/>
    <path id="Union_5" data-name="Union 5" d="M-1603,29l16.5-29,16.5,29-16.5,29Z" transform="translate(279.097 391.5) rotate(-90)" fill="#333"/>
    <path id="Union_6" data-name="Union 6" d="M-1603,29l16.5-29,16.5,29-16.5,29Z" transform="translate(1103.017 166.699) rotate(-90)" fill="#333"/>
    <path id="Union_7" data-name="Union 7" d="M-1603,29l16.5-29,16.5,29-16.5,29Z" transform="translate(278.385 994.653) rotate(-90)" fill="#333"/>
    <path id="Path_6" data-name="Path 6" d="M1615,1395.7h394.835l-4.3,15.692,17.238-4.517h0l7.842-.034v-9.628l-1.528-1.547-1.081-6.482-5.234-5.3-1.377-1.386H1615Z" transform="translate(-1307.615 1800.069)" fill="#333"/>
    <path id="Union_1" data-name="Union 1" d="M-1603,29l16.5-29,16.5,29-16.5,29Z" transform="translate(2308 3748)" fill="#333"/>
  </g>
</svg>
