<svg xmlns="http://www.w3.org/2000/svg" xmlns:xlink="http://www.w3.org/1999/xlink" width="1440" height="567" viewBox="0 0 1440 567">
  <defs>
    <linearGradient id="linear-gradient" y1="0.5" x2="1" y2="0.5" gradientUnits="objectBoundingBox">
      <stop offset="0" stop-color="#db00be"/>
      <stop offset="1" stop-color="#0083b0"/>
    </linearGradient>
    <clipPath id="clip-path">
      <rect id="Rectangle_26" data-name="Rectangle 26" width="1440" height="567" transform="translate(0 2388)" fill="#333" stroke="#707070" stroke-width="1"/>
    </clipPath>
  </defs>
  <g id="Community_banner_background" data-name="Community banner background" transform="translate(0 -2388)">
    <rect id="Rectangle_25" data-name="Rectangle 25" width="1440" height="567" transform="translate(0 2388)" fill="url(#linear-gradient)"/>
    <g id="Mask_Group_2" data-name="Mask Group 2" clip-path="url(#clip-path)">
      <path id="Path_14" data-name="Path 14" d="M548.14,892c55.956,34.951,66.5,39.7,51.083,25.289,4.705,5.167-2.395,3.151-17.98-7.73L578.05,895.4c-8.234-4.369,12.057,11.763-12.435-4.831-31.969-23.189,12.435,4.831-13.275-14.157-11.678-7.1-18.064-7.772-32.221-19.744-21.34-18.442-16.887-21.34,1.764-12.393-39.152-26.423-40.37-27.264-79.607-53.771,23.4,14.2-12.267-16.257,31.128,13.821l3.907,7.436c14.913,9.7,49.57,34.279,50.368,32.011,9.284,10.25,29.112,29.658,14.871,21.256,8.192,4.285,24.7,13.065,7.9-.252,37.64,22.6,39.572,34.321,69.819,50.368,2.436-3.235-62.635-51.923-13.863-23.4-24.407-16.509-46.8-32.809-69.9-50.368,15.879,7.477.21-11.51,2.142-15.753-31.591-18.61-78.388-51.377-107.752-69.567l18.568,8.864-74.313-47.344c18.568,8.948-105.778-85.446-6.637-16.887,52.427,35.833-9.536-14.787,44.109,23.441l-7.9.21,2.689,1.428c12.9,9.452,27.936,27.264,39.32,29.7-46.84-32.851.462-6.847-5.923-15.543a588.832,588.832,0,0,1-57.552-42.051l50.2,27.432c-8.486-5.923-16.929-11.8-31.38-21.971,23.4,14.2,48.184,27.348,74.818,44.151a420.394,420.394,0,0,0,41.925,31.087c5.209,6.259-8.864,2.437,16.888,21.424,6.763-2.646,59.947,38.858,83.639,49.612,18.946,13.653,20.794,17.308,16.467,16.761-17.728-11.174-43.437-30.162-59.988-38.858,53.981,42.807-51.041-25.373-15,6.217,38.1,27.348,22.139,11.8,53.435,33.691,7.268-1.554,47.134,21.425,71.877,34.573-100.779-75.7-1.008-13.947-67.466-69.567,19.45,6.679,30.918,25.205,54.443,35.918-37.388-26.045-74.482-55.494-50.873-44.781l-24.281-11.888c3.7,2.689,9.368,6.847,12.939,9.494,8.57,8.99-27.474-14.619-43.143-25.583,17.1,9.956,23.567,10.67,12.182.294-9.452-6.763-14.367-8.528-29.952-19.45.84-2.227-8.36-12.477,28.4,12.351l6.679,5.335,9.2,2.227c25.751,18.9,58.266,43.269,70.827,48.226,3.907-4.2,25.961,7.52,48.94,17.056l-19.912-11.51c-7.268-6.511-11.384-10.5-3.7-7.352,31.843,23.1,75.994,54.569,96.746,63.727-18.694-16.972,5.8-8.4,19.828-4.537-72.633-51.881-91.579-57.468-147.955-97.166-25.457-22.349-27.558-22.6-38.774-36.548,20.668,12.771,7.393-1.386,42.723,24.449,8.528,8.948-21.467-10.5-22.349-8.276,37.43,26.087,7.772-.378,41.883,23.1l24.239,19.954c21.382,10.418,68.012,46.714,63.643,38.1l-34.867-29.112c15.837,7.52,45.537,30.414,55.662,38.4-15.291-14.325,28.44,12.435,18.484,4.453,1.806,3.571-16.677-8.864-32.3-19.786-25.877-23.441,72.087,42.639,14.2-4.033,2.437,4.831,17.728,19.2-18.442-4.453-23.9-15.333-39.026-33.145-53.057-37.01l-29.448-26.3c11.72,7.1,30.876,17.266,40.16,27.516,9.83,3.4,12.183.252,46.252,23.609-34.069-23.357-37.094-29.406-40.2-35.5,4.873,1.68,53.309,33.565,40.791,28.692l33.061,17.56,3.907,3.823-.924-5.8c-21.088-13.821-3.949,4.075-33.061-17.518-4.663-5.167,11.973,3.7-6.427-8.7,10.5,4.579,41.925,23.063,61.459,37.808,7.436,6.637-10.25-4.495,2.563,4.957,54.821,32.557-34.321-28.02-5.335-14.409l-2.731-1.512c-18.316-12.308-20.164-15.963-24.239-19.954,16.678,8.906,16.972,13.527,34.615,24.575,1.512-.966-6.343-8.654,4.453-2.9,8.108,7.9,14.325,12.057,39.908,30.96,25.625,10.88-59.022-49.15-51.125-49.318,28.1,15.627,42.975,17.35,32.725,4.831-18.148-7.813,4.915,9.746-12.561,3.109-29.112-21.677-49.318-29.7-60.409-43.605,41.337,21.929,23.819-.714,54.779,16.635,66.458,47.638-50.831-28.734,30.624,28.734-11.93-11.721,20.374,4.537-14.115-20.038,25.079,17.77,1.176-5.629,31.8,15.081-13.191-6.133,13.527,10.754,20.374,16.089-.672-1.134-14.2-13.947-.966-5-19.87-13.737-39.824-27.474-55.283-38.06-5.251-6.343,34.825,21.089,35.287,17.77-35.581-22.433-19.366-18.316-34.993-29.28,26.592,16.8,63.139,45.075,72.129,47.218-17.644-11.132-38.186-23.861-41.295-29.952-62.383-43.731-29.952-11.342-67.886-38.69-4.579-5,22.349,8.318-13.863-15.291l26.087,15.627c-43.773-34.783-9.536-14.871-11.09-21.887,9.242,2.227,65.45,41.841,62.425,43.731,21.508,10.5,32.893,21,35.245,17.77-8.822-5.629-16.257-12.1-23.021-17.518-6.469-8.822,36.716,24.827,31.633,18.526-.672-1.26-15.669-10.964-20.164-16.089L950,826.384c-24.281-19.912-46.336-31.633-60.114-38.942-12.6-12.9,29.154,13.653,17.728,3.151-15-9.746-4.159-.5-23.189-14.031,6.6-2.773,45.285,25.793,65.534,33.817,26.844,21.3-18.19-7.856-12.141-.21l48.058,35.2c-4.075-3.865-27.684-22.6,6.3.756l17.518,14.535c7.52,3.235-29.364-26.255-.588-9.2L968.48,819.327c-40.118-27.516-11.846-3.7-41.211-21.887-15.291-14.325-44.823-24.7-62.047-42.639.5-.126.462-.5.588-.8,3.907,1.386,7.94,2.941,11.426,4.2-3.319-2.395-5.965-4.243-8.99-6.469,1.68-.042,5.209,1.3,15.459,7.52l7.856,7.73c3.991-4.075,44.4,19.954,49.108,17.1,23.189,14.073,33.1,25.541,39.74,30.919,1.848,3.571-31.717-15.165-.5,6.805,14.913,5.5.8-10.838,22.433,1.722a40.53,40.53,0,0,1-5.671-4.453l13.779,7.352-8.906-5.587c-1.764-3.739-11.132-13.989,6.091-3.907l17.518,14.619c5.083-1.848,43.647,18.61,7.225-9.578-2.437-4.789,28.692,17.014,41.253,21.887-73.852-54.275-67.256-37.388-131.992-81.455,15.585,2.773,65.87,30.33,88.723,39.908,8.108,7.855,29.448,18.19,50.285,35.5-20.374-16.215,4.495-2.983-14.409-16.551-21.508-10.5-68.012-38.69-88.554-51.293-9.494-14.871-33.985-23.315-37.3-34.069,4.2.42,38.564,28.4,44.361,27.978,3.319,2.563,38.564,28.44,15.249,14.325,33.019,25.457,35.329,17.77,77.212,48.9-3.571-7.183-19.072-21.676-57.51-50.032,25.415,14.283,47.26,33.943,63.013,44.907l56,27.054c-36.505-28.272,12.351-3.235-14.283-28.1-40.959-25.247-25.583-10.88-31.507-10.418,5.545,2.9,10.46,4.621,17.9,11.3-4.327-.588-30.918-17.308-13.485-2.73l-34.069-23.4c4.285,8.528,50.578,32.137,49.4,37.682-12.519-4.747-68.894-44.445-88.806-55.914-11.342-10.46-3.109-6.091-8.318-12.393,33.4,22.139,60.241,35.455,38.312,15.837,2.52,4.873-19.072-5.629-37.136-21.466l26.087,7.562c-14.493-8.528-11.594.966-36.506-20.248,13.065,6.091-17.854-19.156,23.651,7.268,28.23,15.837,67.256,49.024,83.724,57.72-8.738-5.5,7.982-.252,25.709,10.964-10.586-9.158-38.438-28.44-29.448-26.3,16.551,8.78,34.153,23.441,40.16,27.474-43.857-34.741,53.309,25.583-2.773-17.56,20.752,16.593,18.316,10.712,27.684,15.375-30.2-20.038-51.377-43.689-84.438-59.568,9.494,6.805,16.426,12.224,27.852,19.2-1.512.924-18.568-8.906-30.919-17.224-18.61-17.055-43.521-38.27-66.542-55.746-13.821-7.351,18.274,15.837,28.776,25-3.025-.84-6.974-3.193-11.132-5.839l-34.615-27.306c-11.8-8.318-17.182-11.8-20.206-13.485a81.839,81.839,0,0,1-6.679-6.806c12.813,6.385,21.13,8.612,22.139,5.965,1.176.756,2.31,1.512,3.487,2.269,4.495,3.865,8.15,7.183,10.88,9.326,2.143,3.319-30.162-16.131.672,5.965,8.948,3.991,6.553-.546,8.738-1.26,13.317,9.368,26.129,18.568,36.59,26.633,37.3,21,89.773,50.453,109.937,61.795-15.375-14.409,19.786,3.319-18.106-23.861-7.814-3.193-18.82-9.074-32.515-16.3-21.508-18.568,21.761,7.015,45.033,21.172-13.485-10.67-35.917-27.054-19.492-18.316,38.018,27.264,51.209,33.355,69.4,41.211,24.407,8.528-58.686-48.016-10.628-20.794l23.063,17.56c2.646-6.553-2.814-9.452-22.685-32.473l33.565,22.265c-30.33-24.113,14.577,5.041,2.563-6.722-11.258-7.225-27.516-17.728-38.606-24.911l8.444,1.008c-11.72-7.142-45.622-30.414-45.328-33.859-2.142-1.26-4.873-2.857-7.939-4.7,11.972,5.839,36.254,20.332,1.008-6.805,20.836,16.509,17.812,11.174,26.718,16.131-20.458-14.073-38.27-28.692-57.09-42.261-1.722-2.353-2.058-4.117-8.486-8.822,26.634,16.761,85.95,54.4,113.55,77.044l-39.53-26.339,37.85,30.792c36.632,16.719-15.837-27.1-2.73-29.028-18.106-15.8-64.526-43.9-32.809-28.9,11.763,7.015,41.715,26.465,50.243,35.455-3.277-4.327-23.4-20.29-33.019-29.07a10.694,10.694,0,0,1,1.386.714c5.881,2.479,4.579.378.378-3.487,2.058,1.092,3.655,1.932,6.973,3.865-2.184-1.974-8.024-6.343-14.871-11.342l.756.294c-2.815-1.932-5-3.487-7.645-5.293-6.511-5.8-5.545-6.469-4.579-6.931,2.016,1.134,3.109,1.722,6.133,3.571l23.1,17.6c.882-3.949-1.848-6.931-10.754-15.879,10.67,6.175,19.7,11.006,24.953,11.972,10.88,9.284,42.387,27.684,36.589,28.23l-37.64-22.6c17.434,14.493,34.153,19.786,53.015,37.01-6.217-6.889-4.873-8.4,1.6-5.671-14.367-9.452-33.481-25.163-42.513-31.212,6.973,1.974,36.548,24.743,21.382,10.46-31.717-23.1-25.247-14.241-20.879-9.284-13.107-8.864-21.8-15.249-28.272-20.374,1.765.252,10.376,5.461,12.729,6.091l24.281,12.309c-4.705-3.7-7.856-6.385-10.082-8.486,8.108,5.293,16.509,11.174,24.071,15.417-19.576-14.157-23.861-18.82-25.541-21.887,2.731-.168,6.049-.252,4.2-3.823,11.384,7.184,21.34,13.737,28.986,20.836,10.964,5.8-6.6-8.864-18.82-17.1,10.46,6.259,8.7,3.151,6.3-.462l-.042-.042c-3.193-4.705-7.31-10.166,13.107,3.235-19.66-13.4-22.475-17.518-28.44-23.567,7.226,5.293,13.107,10,16.131,11.973-8.99-7.184-11.174-9.7-10.838-10.46,24.029,15.375,25.709,14.283,20.626,8.36,6.974,2.941,8.4,2.016-13.233-14.787,20.668,16.551,18.022,10.88,27.222,15.627-17.14-11.636-32.011-23.987-47.344-35.833l.462.168a204.136,204.136,0,0,1,25.037,18.442c-1.176-1.26-.967-1.428-1.722-2.269,4.957,3.361,9.956,6.847,12.519,8.78-.882-.966-15.291-13.191-2.143-4.159-3.865-2.73-7.646-5.251-11.468-7.982a5.559,5.559,0,0,1,3.319.8c-6.259-4.621-14.073-10.376-21.424-15.837,4.579,2.731,7.856,4.579,7.646,3.865-12.729-8.36-18.82-12.939-22.307-15.879,10.376,6.553,26.8,18.862,14.283,7.6-11.637-8.486-17.854-12.687-21.089-14.451a60.75,60.75,0,0,0-7.141-5.587c26.087,17.139,63.475,44.865,71.373,47.722-17.434-11.384-37.472-24.323-41.715-29.658-6.806-4.789-11.931-8.276-16.636-11.426a6.481,6.481,0,0,0,2.268.672c4.5,2.941,9.494,6.511,13.695,9.116-5.881-4.285-10.082-7.52-13.611-10.292a61.07,61.07,0,0,0-7.141-6.889c23.4,13.653,45.244,26.381,56.67,33.061-9.074-8.4-1.134-5.755-.462-7.562L1299.8,647.3c-5.545-4.243-9.956-7.016-15.039-10.628-.588-1.722-4.621-5.587-17.938-15.333-6.385-2.857-15.669-7.9-26.423-13.821l-.21-.168a19.513,19.513,0,0,1-1.723-2.478c1.47.168,8.108,4.033,13.359,7.015.588.378.8.5,1.47.966l-.756-.588c4.7,2.689,7.646,4.159,3.151.378-12.183-8.108-7.562-4.117-15.8-9.7,10.88,6.007,27.516,16.216,39.152,23.483-2.731-2.184-5.881-4.663-8.99-7.141,9.368,5.965,18.526,11.72,25.163,14.955,27.6,20.92-16.761-8.738-9.872-1.722l48.6,34.909c-4.285-3.655-28.566-22.055,5.377,1.428l18.148,14.157c6.931,3.529-31.129-25.247-3.151-7.646L1312.657,643.9c-4.033-2.815-6.973-4.789-9.788-6.637a280.18,280.18,0,0,0,25.037,12.855c5.8,2.184,5.167.378,1.765-3.151.672-.8,2.52-.714,11.342,4.789-2.226-1.6-4.285-3.109-5.839-4.285l13.107,7.688-8.738-5.713c-1.176-1.554-4.369-4.705-5.251-6.175l5.461,4.117a5.931,5.931,0,0,0,.084-2.268c1.26.672,1.681.84,3.529,1.974l18.148,14.2c3.571-.84,40.37,20.836,3.025-6.847-3.151-4.2,27.978,17.56,39.446,23.231-43.857-31.633-58.56-39.656-76.162-49.864-3.025-3.277-6.469-7.016-10.712-11.931l1.47.882,31.255,21.13c-8.234-6.6-10.67-8.99-10.5-9.536,6.889,3.781,13.359,7.352,18.148,9.788,8.612,7.478,28.776,18.694,50.41,35.455-20.962-15.8,2.731-1.806-16.341-15.291-9.83-5.545-25.751-15.375-41.715-25.415,3.151,1.512,4.915,2.016,2.941-.294,12.308,7.393,21.928,12.056,49.234,31.843-4.915-6.343-21.425-20.038-60.367-48.184,24.365,14.871,47.638,33.817,63.391,44.739l52.595,29.322c-37.346-27.768,8.99-1.05-19.408-24.7-40.035-25.919-23.609-12.182-28.356-12.645,5.335,3.193,9.746,5.125,17.6,11.469-3.613-.966-29.658-18.022-11.552-3.865l-33.985-23.525c5.965,7.478,49.654,32.767,50.326,37.178-11.427-5.587-67.844-45.117-87.126-57.132-12.141-10-4.117-5.293-10.166-11.174,33.061,22.391,58.434,36.716,35.329,17.938,2.479,3.235-8.612-2.563-22.391-12.183,6.049,2.227,7.394,1.092,5.671-2.1l3.7,1.512a38.489,38.489,0,0,0-3.907-2.1,58.256,58.256,0,0,0-4.495-6.469c26.886,17.181,63.391,45.5,78.094,54.149-8.528-5.629,6.343.882,23.777,12.267-11.217-8.864-38.942-28.1-31.129-25.205,15.8,9.326,34.069,23.483,39.866,27.516-44.949-33.943,50.116,27.81-7.225-14.577,21.424,16.131,17.812,11.132,26.675,16.089-29.91-20.206-53.6-42.177-84.648-59.4,9.662,6.721,16.635,12.014,27.726,19.2-.882.588-17.265-9.7-29.49-18.022-18.61-15.165-42.387-33.859-64.4-50.368-.588-1.638,1.26-1.554,9.662,3.571l17.518,14.535c1.218-.336,4.831.966,8.822,2.479,35.665,21.8,82.841,50.536,101.535,62.047-16.341-13.653,16.887,5.293-21.256-21.761-7.142-3.613-17.644-9.83-30.75-17.518-22.433-17.9,19.576,8.57,42.177,23.147-13.863-10.544-36.505-26.718-20.752-17.476,38.186,27.138,50.453,33.817,67.3,42.555,21.971,10.124-60.745-46.672-14.409-18.316l23.4,17.266c.21-4.957-4.915-8.024-27.348-29.322l33.187,22.475c-31.17-23.525,13.149,6.007.21-5.083-11.048-7.31-27.1-18.064-38.144-25.331l7.142,1.89c-8.36-5.377-28.818-19.408-39.362-27.558.756-2.773,16.341,3.613-2.059-12.981-40.16-25.877-24.659-11.678-30.036-11.678,5.461,3.067,10.082,4.915,17.6,11.51-2.479-.462-13.695-7.352-17.35-8.864-15.627-10.082-32.179-21.046-38.354-25.877a42.9,42.9,0,0,0,3.991,1.848c18.61,12.9,30.876,19.66,31.044,18.148-24.449-14.913-30.414-22.475-41.589-31.423,19.282,11.972,10.292,7.9,26.844,19.954l19.282,10.208c-22.643-14.535-12.855-11.132-25.877-20.416,26.13,17.014,84.4,55.409,112.961,77.38l-39.152-26.549,38.984,29.952c34.237,18.484-20.29-24.029-10.376-23.945-9.326-7.436-24.785-18.106-34.783-25.205-2.521-2.689-.168-2.058,4.117-.042,13.023,8.444,37.892,25.163,46.5,32.851-3.613-3.655-21.8-17.476-32.515-26.087,4.7,2.184,6.847,2.52,3.823-.63.588.378.714.42,1.386.84-.294-.21-1.47-1.092-1.933-1.428a182.855,182.855,0,0,0-15.291-12.645c20.668,16.509,17.9,11.006,26.844,15.837-11.174-7.646-20.878-15.753-30.876-23.693,14.409,9.242,27.348,17.308,33.187,19.2,11.342,8.99,41.715,28.1,37.3,27.768l-36.59-23.315c18.064,14.157,32.893,20.584,53.057,36.968-7.057-6.343-6.385-7.352-.336-4.327-13.779-9.83-34.321-24.7-42.975-30.877,6.091,2.437,36.422,24.911,20.206,11.3-32.137-23.021-24.323-14.913-19.324-10.334-48.73-33.187-40.707-31.885-64.862-50.2,30.457,20.836,59.863,42.219,84.354,57.216-41.589-29.7-17.1-16.383-41.379-34.825,20.122,13.065,34.069,21.887,46.167,31.885,10.376,6.091-7.73-8.024-19.954-16.426,23.483,14.913-19.408-19.24,16.257,4.747-25.458-17.392-23.4-18.4-36.59-28.692,80.909,54.527-13.359-17.1,14.535.5-.966-.672-1.554-.966-2.352-1.512,8.234,4.873,15.207,8.36,22.811,12.015,23.231,9.368-58.812-47.932-11.931-19.828l22.937,17.686c1.722-5.965-3.529-8.948-24.113-31.339L1543.621,549c-30.33-24.029,13.905,5.545,1.6-6.007-10.964-7.352-27.1-18.022-38.06-25.289l7.814,1.344c-9.7-6.259-34.657-23.735-41.925-30.792.42-.378-.378-1.6-2.983-4.075l-23.9-16.929,31.086,17.182c-14.451-11.636-41.672-28.062-62.3-41.8-2.688-2.479-5.293-4.873-7.73-7.183,3.7,2.31,6.805,4.159,10.922,6.805a80.246,80.246,0,0,0,9.914,8.486l10.754,5.209c5.755,3.823,10.67,7.183,17.224,11.426,7.856,4.537,5.209,1.386.882-3.823l-7.94-4.579c-15.249-10.292-16.425-12.224-21.3-16.509,6.511,4.2,13.779,9.074,22.559,14.829,5.125,3.823,9.116,6.847,8.444,6.679,10.082,6.511,17.223,10.964,22.307,14.073,20.5,14.031,41,28.566,54.233,39.4l-38.942-26.676L1534.17,521.4c35.329,17.812-17.35-25.835-5.671-26.844-8.36-7.226-22.433-17.182-32.3-24.323,4.789,2.73,11.048,6.427,21,12.519-10.166-7.393-16.8-12.6-22.1-17.013l.294.168c11.552,7.225,41,26.97,49.738,35.833-3.949-4.789-29.7-25.037-36.631-32.053,3.7,2.184,6.175,3.529,5.167,2.268-2.436-1.764-3.991-2.815-6.049-4.327,1.176.21,4.411,1.848,12.435,6.847-.8-.714-3.235-2.563-4.789-3.739,3.4,2.395,6.385,4.117,9.872,6.763-9.662-8.276-43.185-31.927-21.046-18.652-17.391-11.931-32.977-22.727-50.578-33.943l-2.1-1.932c19.576,10.334,90.361,57.762,84.479,50.831l-8.864-5.587c9.368,5.209,12.015,5.839,11.8,4.579,12.645,9.788,37.346,25.289,32.641,25.457l-36.842-23.189c17.518,14.493,33.313,20.374,52.385,37.3-6.385-6.679-5.293-7.982.882-4.957-14.115-9.662-33.4-25.331-42.219-31.465,6.6,2.226,36.127,25.037,20.668,10.964-31.59-23.231-24.659-14.7-20-9.83-3.277-2.227-5.629-3.949-8.36-5.881-4.2-5.335-18.988-17.476-5.629-9.788l-34.741-23.567c-1.638-1.638-3.487-3.361-5.629-5.251.084-.294.084-.63.756-.42,1.05.588,3.025,1.932,4.873,3.235,1.6,1.092,3.067,2.142,4.621,3.277,1.344.924,2.73,1.974,3.7,2.647l.042-.042c21.928,15.585,43.143,30.708,61.627,41.757-41.085-30.078-15.669-17.266-39.4-36.043,20.248,12.981,34.237,21.677,45.79,32.053,10.586,5.965-6.847-8.57-18.988-16.888,23.693,14.745-17.728-20.374,17.98,3.655-25.205-17.56-22.685-18.946-35.329-29.532,80.573,54.737-10.964-18.526,17.055-1.092-12.014-8.318-13.317-7.52-25.541-16.005-15.375-10.922-21.467-18.19-10.754-12.183l-2.773-1.554-18.274-15.711,29.616,19.828c-19.87-16.677-68.516-48.268-95.318-68.726,3.823,2.394,6.554,4.2,11.048,6.889a165.736,165.736,0,0,1-15.964-10.8l37.136,22.979c-12.141-8.36-21.719-15-29.112-20.038-1.764-2.142,5.587,2.311,14.115,7.688,20.668,14.493,46.21,33.145,63.643,43.857l-28.23-23.609c52.217,37.3-.966-7.394,46.84,28.062,2.647-.714-11.972-11.468-26.046-21.845,3.7,1.932,6.932,3.655,9.284,4.957-11.342-7.183-20.458-13.653-27.81-19.156a26.482,26.482,0,0,1-4.033-3.781c9.326,6.091,10.8,6.469,9.536,4.873,11.216,7.352,21.3,13.443,22.307,14.787-2.563-3.151-14.577-11.594-28.482-20.878-4.327-4.159-8.108-7.94-1.6-4.621a163.27,163.27,0,0,1-14.157-8.738c-12.939-15.753,86.5,52.763,6.931-9.116-14.787-9.872-3.234.5-22.138-13.275,12.644,6.385-11.048-15.375,36.043,18.862-30.33-23.987-34.825-22.727-43.059-33.523-23.525-15.627-24.869-14.871-38.858-23.525-18.778-13.695-19.66-18.022-19.66-18.022-5.5-3.067-13.359-7.562-28.9-18.61,1.26-.84,15.459,7.94,26.129,14.031a356.122,356.122,0,0,1,39.068,29.784c7.9,4.453-20.248-16.089-6.175-7.394l40.412,28.986c2.479-1.6-48.6-36.59-22.475-22.6-5.377-3.067-14.619-9.83-23.441-15.627-34.615-27.936,35.287,14.661,5.5-8.318-45.622-28.86-22.391-19.534-63.139-46.5,54.149,34.531-42.765-38.606,16.383.924,10.46,2.9-72.759-56.5-55.536-48.268C1277.412,135.256,1210.072,88,1168.441,56.742c-13.317-7.562-11.931-2.142-38.144-22.307l-1.47-2.352c-6.007-4.159-35.581-24.071-38.774-23.525,18.9,16.8,43.143,33.565,57.342,48.52-30.624-15.8,16.635,21.635,10.67,23.609l5.419,3.067c50.495,40.034-41.421-25,1.05,10.628l2.731,1.428c4.7,5,12.855,15.753-5.755,5.209l24.071,13.611c9.914,20.752-4.117,25.163-31.3,19.534-.336-.168-.336-.042-.588-.084-2.1-.462-4.117-.84-6.3-1.386-9.284-5.671-16.215-9.41-19.366-10.628,5.461,3.7,8.99,6.007,13.4,8.948-8.234-2.268-17.1-5-26.8-8.528-12.645-8.024-26.129-16.972-41.337-27.978.882-2.184,64.357,42.345,41.5,24.869l-62.845-40.328c-1.134-.924-1.554-1.344-1.428-1.428l-7.436-4.2c-4.495-3.655-45.033-32.389-13.149-12.435-48.814-31.759,17.56,16.089-23.945-10.46,35.329,24.071,41.463,29.784,56.376,41.085l-3.277-.63c-12.981-8.024-27.264-17.434-39.908-26.97,30.246,24.029-27.432-16.3-.5,5.083,8.108,7.562,10.082,4.915,25.541,15.963,10.712,8.36,14.493,11.846,14.2,12.561-3.235-1.764-3.823-1.764-3.235-.924-5-2.31-14.661-7.814-21.928-11.763-15.711-10.754-21.131-12.6-45.034-29.364-.966.63,24.575,19.66-6.259-.756,20.458,13.863,41.421,28.062,62.005,42.009-7.478-4.495-14.2-8.36-19.576-11.132l-.042-.042c-2.647.168-59.191-37.766-53.015-30.33-16.047-10.838-30.078-21.13-40.622-27.18,23.063,14.829,43.227,31,57.342,42.849l-1.176-.378c-52.385-33.061-62.173-38.144-45.706-25-5.461-4.7.966-2.226,16.761,8.486l2.6,4.243c-9.116-4.873-19.744-10.88-34.657-20.374l23.483,18.568c-11.048-6.259-18.358-9.662-23.567-11.468l-.588-.378.21.168c-15.669-5.335-10.292,5.377-24.2,2.016l17.224,22.769,5.293,3.655c-14.493-7.94-32.725-18.694-46.588-26.634C887.7,54.1,895.72,59.808,902.484,64.723c-4.369.8-.294,8.276-20.542-2.773-8.024.252-18.82.756,4.579,22.769-5.923-3.025-12.1-6.217-18.568-9.452l19.576,11.8c7.9,6.091,12.351,9.788,5.209,6.259C860.1,70.773,814.98,39.98,795.614,29.982c20.206,16.005-1.932,6.049-14.367,1.134,66.164,45.159,86.916,55.746,131.151,84.9l3.823,2.857c-11.384-4.159-49.654-29.658-58.35-32.263l15.543,10.124C850.561,82.451,816.744,58.548,822,64.807l23.063,17.266c-6.931-4.2-12.182-7.1-14.2-7.394-11.552-7.856-22.727-15.837-28.356-19.912C819.306,68.168,776,41.2,786.456,48.8c-2.521-3.067,16.047,9.2,31.969,19.954,28.062,22.1-70.911-43.311-9.914,1.428-3.529-4.2-20.248-17.6,16.005,5.881,9.032,5.839,16.888,11.552,24.2,16.93-6.931-2.479-9.83-1.932-19.912-8.486,13.107,9.326,18.4,13.695,19.954,15.627-5.545-3.235-12.393-7.478-23.4-14.829,10.5,7.016,17.6,12.057,23.4,16.257-1.974.252-7.94-2.016-3.991,2.268C832.287,95.6,820.819,87.7,827.078,90.685L795.235,72.453l-4.369-3.613,2.563,4.789c21.214,13.695,1.806-2.857,31.927,18.232,5.251,4.663-10.712-4.537,7.856,7.772-9.83-5.041-40.707-23.819-60.913-38.144-7.982-6.259,9.62,4.915-3.613-4.285-53.939-33.1,36.254,26.76,8.864,12.183l2.6,1.554c14.535,9.578,19.282,13.611,22.811,16.635l-3.151-1.344c-10.5-6.637-14.451-10.838-29.364-20.332-.8.63,7.856,7.73-2.562,1.806-8.906-7.31-15.249-11.51-41.631-29.868-23.9-12.057,62.635,46.8,56.418,46-27.306-16.257-39.7-19.492-27.516-8.15,16.888,8.612-6.973-8.36,8.864-.882,12.225,8.57,22.223,14.871,31.044,20.5-.084,3.907-3.739,5.335-4.243,8.78A90.73,90.73,0,0,1,777.3,97.112c-68.012-46.63,49.57,29.49-33.649-26.886,13.275,10.88-17.56-6.259,17.686,17.77-25.583-17.392.882,4.327-30.036-16.131,12.435,6.553-14.157-10.292-21.256-15.459.882.966,15.627,12.9,2.269,4.075,20.206,13.527,40.412,27.054,56.124,37.6,6.175,5.713-34.489-21.424-33.691-18.778,35.371,22.475,21.257,17.056,37.136,27.852C745.371,90.307,707.311,63.043,699.5,60.187c17.6,11.216,37.892,23.945,42.387,29.238,63.6,42.975,27.39,12.939,66.332,39.614,4.789,4.327-16.509-7.268,10.04,10.208l-.042.21-19.828-12.183c8.612,6.217,13.695,10.166,17.518,13.149a27.3,27.3,0,0,1-8.7-2.983c-7.226-3.319-22.139-16.341-29.49-19.744l37.136,27.39c-.672-.042-1.008.21-.63.966a251.022,251.022,0,0,1-25.541-16.089l3.361,2.689c-2.226-1.47-3.823-2.437-5.419-3.4-17.77-11.8-37.094-25.457-36.043-26.087-20.332-11.132-32.809-21-33.565-18.694,8.78,5.587,16.719,11.72,23.9,16.972,7.9,7.772-37.178-24.617-31.086-18.9C710.714,83.585,725.8,93.289,731,97.91L692.188,72.957a572.515,572.515,0,0,0,59.4,38.438c-.294.588-1.386.672-2.646.63-7.73-4.159-18.9-10.8-11.637-5.041,4.033,2.647,6.049,3.823,7.394,4.579-2.227-.546-4.705-1.386-7.478-2.352-13.569-8.318-29.7-18.526-39.866-23.441-28.23-20.5,16.93,8.612,9.7,1.764L657.615,53.171c4.411,3.613,29.238,21.676-5.293-1.386L633.8,37.88c-7.057-3.529,31.8,24.743,3.529,7.478L679.8,76.234c40.665,27.1,10.586,4.453,39.7,22.727,3.571,2.857,8.612,5.629,12.855,8.4-2.941-1.134-5.923-2.268-8.948-3.571,6.259,2.31,14.115,7.141,21.593,11.8,12.855,7.772,26.129,15.837,37.388,25.457l-.084.168c-1.974-.294-3.487-.294-2.773,1.344-2.016-.84-5.335-2.6-13.191-7.478l-8.738-7.142c-1.89,2.731-41.673-21.719-44.445-20.038-22.937-14.2-34.405-24.617-41.463-29.742-2.562-3.109,30.036,16.089-1.722-5.377-13.737-6.385,2.773,8.57-18.442-4.285,2.353,1.638,4.369,3.151,5.965,4.243l-13.275-7.6,8.864,5.629c2.646,3.151,13.317,12.561-3.571,2.352L630.9,59.178c-3.445.756-40.622-20.542-2.689,6.637,3.487,4.2-28.188-17.224-39.74-22.811,75.994,52.931,65.408,38.606,130.941,82.169-13.275-4.327-62.047-32.809-83.3-43.353-8.864-7.268-29.2-18.358-51.251-34.825,21.3,15.5-2.647,1.764,16.761,15.081,20.332,11.09,66.374,39.7,86.748,52.427a86.971,86.971,0,0,0,13.275,11.048,50.569,50.569,0,0,0-7.6-2.058c-4.537-2.9-8.15-5-9.368-5.125-3.4-2.479-39.782-27.684-16.719-13.4-34.405-24.575-33.691-18.736-76.918-48.94,5.167,6.217,22.013,19.7,61.795,47.386C628,88.668,604.264,70.143,588.342,59.346L535.159,30.528c38.06,27.264-8.822,1.008,20.332,24.239,40.664,25.5,23.819,12.056,28.356,12.477-5.335-3.067-9.746-5.083-17.77-11.342,3.655,1.008,30.12,17.77,11.552,3.907l34.531,23.1c-6.175-7.394-50.368-32.221-51.293-36.548,11.468,5.461,68.936,44.445,88.386,56.124,12.477,9.83,4.453,5.251,10.628,11.006-33.565-21.971-59.232-36.127-35.455-17.6-3.613-4.243,16.888,6.973,36.3,21.887L637.7,108.413c14.115,8.7,8.864.714,35.413,20.836-6.343-3.361-.924,1.344.336,3.151l-1.764-.084c-2.562-1.218-8.024-4.453-19.744-11.931-27.516-16.257-69.062-47.722-84.984-56.8,8.78,5.5-6.175-.882-23.861-12.1,11.384,8.7,39.614,27.642,31.8,24.785-15.963-9.158-34.615-23.1-40.622-27.1,45.874,33.439-50.494-27.306,7.814,14.325-21.761-15.837-17.98-10.922-26.844-15.753,30.33,19.828,54.7,41.421,86.076,58.392-9.788-6.637-16.972-11.888-28.272-18.862.924-.588,17.56,9.452,29.994,17.686,18.274,14.409,41.5,31.969,63.433,47.764-21.761-13.317-53.855-35.119-47.848-26.634-33.733-20.038-72.465-42.975-89.1-52.889,16.8,13.485-16.761-5.209,22.013,21.382,7.141,3.571,17.854,9.662,31.044,17.266,22.979,17.518-19.576-8.528-42.555-22.769,14.115,10.25,37.22,26.255,21.3,17.14C522.431,79.553,510,73,493.109,64.387c-22.1-9.914,61.963,45.916,15.123,17.98L484.245,65.354c.126,4.957,5.293,7.94,28.4,28.818L478.91,72.117c31.843,23.1-13.149-5.923.126,5,11.216,7.183,27.6,17.728,38.69,24.869l-7.016-1.848c11.552,7.226,45.915,30.162,46.8,32.851,4.285,2.6,11.09,6.763,18.694,11.51,6.175,4.579,12.309,9.074,17.307,12.813-4.033-2.1-6.805-3.277-6.805-2.689,6.175,3.655,11.174,6.889,15.417,9.788,1.26,1.176,2.31,2.227,2.184,2.647-6.805-3.655-12.435-6.511-17.182-8.654l-4.831-2.521c1.008.63,1.176.84,2.058,1.428a49.1,49.1,0,0,0-10.5-3.655c-27.684-17.812-60.367-39.278-79.943-53.813l39.782,26.087L493.865,96.524c-34.531-18.148,21.215,23.651,11.51,23.483,19.366,15,65.2,43.437,35.245,27.348-11.552-7.183-41.547-26.508-51.251-34.825,7.1,6.847,67.97,49.906,28.23,25.415,5.839,4.579,32.095,22.685,46.756,32.095-.42.546-1.68.5-4.579-.672,8.864,5.8,18.694,11.888,28.944,18.232,1.386,1.134,2.689,2.142,3.991,3.235-.336.042-.924-.168-1.344-.168-27.18-14.577-72.633-45.874-85.4-50.032-11.552-8.822-42.429-27.6-38.06-27.264L505,136.222c-18.526-13.863-33.439-20.206-53.939-36.338,7.184,6.259,6.6,7.31.546,4.243,13.989,9.7,34.909,24.323,43.773,30.414-6.217-2.478-37.01-24.449-20.374-11.132,32.683,22.6,24.659,14.7,19.576,10.166,45.327,29.952,42.6,31.507,60.913,45.411l-.84-.126c-28.776-19.156-56.586-38.438-79.691-52.175,41.8,28.776,18.442,16.593,41.589,33.523-4.957-3.235-8.99-5.755-12.939-8.108-12.939-8.108-23.987-15.249-33.145-22.559-10.5-6.007,8.024,7.9,20.458,16.089-23.861-14.619,20.08,18.946-16.257-4.663,5.671,3.781,9.578,6.553,13.023,8.99-3.949-1.554-5.293-1.3,2.941,5.629-33.145-20.458,11.048,12.729,12.1,15.459-1.386-.672-2.268-1.008-3.529-1.554-.63-.42-.462-.21-1.428-.756l.588.378c-9.2-4.243-14.409-5.587-8.7,1.05l22.979,17.6-31.507-17.056c9.83,8.99,27.306,20.416,43.857,31.423-2.142-.84-4.2-1.512-6.343-2.395a78.394,78.394,0,0,1,9.914,4.831c7.057,4.7,13.989,9.41,19.786,13.653-2.437-1.344-8.108-5.041-20.668-13.779-2.479.462,18.988,14.871,35.161,26.129l.5.462c-16.089-9.158-35.665-24.071-62.593-42.345-7.982-4.537-5.839-1.05-2.436,4.747l8.066,4.537c10.292,7.31,13.611,10.46,16.173,13.275-3.067-1.344-3.949-1.176,2.184,3.781a7.555,7.555,0,0,0-2.352-.84c-13.4-10-27.474-21.34-26.046-21.088-76.624-51.041,8.318,13.863-25.751-4.663l6.091,4.2c-27.432-16.3,5.587,9.284-31.927-15,28.188,20.584,21.34,12.057,38.858,23.525l-6.217-4.285,18.9,10.67c2.227,3.781,22.475,20.71,27.18,27.012-2.731-1.05-5.335-2.058-8.192-3.193l-30.75-19.744c-18.232-15.711,18.82,10.67,22.685,11.3-53.015-35.329-32.767-19.282-75.028-45.537,30.414,24.155,32.473,30.666,36.043,36.506-8.192-7.73-38.312-28.566-35.539-23.987C464.543,215.2,469.836,216,482.186,222.676l-.42.126c.882.462,3.151,1.974,4.453,2.731,1.806,2.352,3.613,4.705,3.949,6.049h-3.739c-3.151-2.142-6.259-4.327-10.04-7.015-11.51-10.292-34.2-21.635-55.7-39.908,8.78,8.78,41.169,33.229,18.988,19.912,13.023,9.494,25.205,18.316,37.892,27.054-1.176.042-2.394,0-3.571,0-27.936-17.518-71.247-47.344-67.55-41.337l8.654,5.755c-34.027-18.526,12.6,20.836-8.7,8.78l33.775,24.239c-2.016-.378-4.411-1.008-6.553-1.428l-2.31-1.806c-1.806-.336-2.142.084-1.806.882-3.193-.714-5.839-1.05-9.41-2.016,3.277,3.907,16.215,13.107,29.238,22.181-1.26.294-3.445-.042-6.427-.924-20.29-12.645-42.051-26.633-36.632-18.82,69.1,54.023-46.966-20.08,18.232,30.12-29.7-19.786-24.365-13.443-21.8-8.738l22.979,14.367c1.386,2.6,1.008,3.823-.168,4.369-12.771-5.755-25.709-11.468-30.414-11.258-22.853-11.3-48.394-24.869-40.58-12.309,9.914,7.478,20.122,14.829,26.676,20.122-2.9-.252-6.007-.672-9.158-1.05-12.855-5.839-18.82-6.763-19.7-4.117-4.705-1.218-9.242-2.31-15-4.243,1.848,2.016,6.763,5.8,12.477,10.04.084,1.26,1.512,3.571,1.134,4.537-16.467-10.544-30.75-19.45-25.751-13.233,4.033,3.109,7.352,5.755,10.25,8.066,8.234,7.1,11.678,11.006,10.166,11.636-9.242-3.571-35.959-19.492-9.746,1.344l-15.459-8.528,4.411,3.193c-3.487-1.47-1.638,1.05.042,3.571l15.249,9.83c-4.873-.126-4.747,3.907-41.043-20.836,4.621,3.655,24.365,17.308,30.54,22.853-4.621-2.31-9.578-4.915-14.7-7.646-21.551-15.039-47.176-31-44.529-26.087,22.013,19.744-29.826-13.107,3.655,13.737,1.6.252,6.511,2.226,13.149,5.419,14.073,10.46,27.642,20.164,27.306,21.8-16.131-8.906-25.5-13.023-30.288-13.947-14.493-7.057-24.491-10.88-17.518-2.268l13.569,10.5c.8,1.3,1.218,2.353.042,2.31l-12.1-6.427c-2.941-1.764-5.461-3.235-9.872-6.091,1.3,1.05,1.974,1.638,3.151,2.6l-3.781-2.016c3.907,3.7,9.7,7.9,15.585,12.1,5.167,5,4.915,6.343-.84,3.907l.84.5c-2.478-.756-2.226.84-.84,3.613l-19.2-11.174L277.9,305.56a19.777,19.777,0,0,0-3.445-1.3c-1.428-1.3-2.857-2.6-2.437-2.521-44.109-29.238-35.035-20.164-25.877-10.628-3.7-2.436-7.73-5.167-12.729-8.612,2.311,1.806,8.57,6.259,14.955,10.922,2.731,2.9,4.369,5.041,4.7,6.343-22.055-15.753-50.2-33.985-47.008-29.07,22.559,19.408-28.692-13.863,5.125,12.771,2.395.546,11.888,4.957,27.39,14.325-.084,1.176-2.058.924-19.87-10.46,28.23,20.584,21.551,11.931,39.194,23.315l-6.175-4.243,3.445,1.89c6.385,4.243,12.981,8.654,20.836,14.325l.126.126c-4.453,2.394-48.6-24.785-65.7-32.263-1.764-1.008-2.983-1.722-5-2.941.966.714,1.344,1.134,2.268,1.89-4.327-1.554-5.839-1.05-1.638,3.613l22.979,17.518L198,293.251c2.815,2.479,7.141,5.5,10.922,8.36-2.857-1.6-4.579-2.226-3.907-.966,29.742,23.819,36.464,25.919,47.512,31.507,11.972,8.192,22.811,15.921,27.642,21.466-15.879-9.284-35.539-24.2-62.257-42.555-5.293-3.067-5.881-2.394-4.747-.084a220.331,220.331,0,0,1-20.374-15.417c6.679,6.931,27.264,22.979,25.877,23.819-3.151-2.562-5.167-4.411-4.663-4.285-59.862-40.286-20.794-9.368-17.35-3.193-12.267-7.73-20.962-12.771-19.408-9.914l8.78,5.713c-10.628-5.629-13.233-5.461-12.9-3.277-2.479-1.6-5.209-3.319-9.116-5.839,4.2,3.067,6.385,4.453,9.242,6.427.756,2.268,3.613,5.965,6.007,9.2-5.293-2.9-12.183-6.847-27.138-16.3,30.456,24.029,32.935,30.33,36.674,36-8.276-7.646-38.27-28.566-35.329-24.071,30.2,23.819,36.422,26,47.26,31.885,3.7,3.907,12.771,11.09,24.155,21.382-6.385-3.907-15.039-9.662-27.6-18.736-11.636-10.25-33.9-21.8-55.578-39.95,8.99,8.654,41.337,33.061,19.45,19.618,18.736,13.695,35.035,26,54.989,38.984-12.939-4.747-92.8-61.669-87.546-53.729l8.654,5.755c-33.565-18.9,13.275,20.29-7.772,8.066l40.328,28.986c-1.974-.42-.588,1.722-2.521,1.344-2.521-1.47-9.284-6.806-12.645-9.452-7.562-1.68,7.1,8.276,26.255,25.037l-1.806-5.251c10.628,7.225,21.214,15.5,21.635,16.551,11.468,5.545-12.981-15.039,5.629-4.873,34.027,24.659,38.186,31.171,38.858,34.783-16.005-10.334-28.65-17.938-32.725-18.526.63.084,6.217,3.319,13.191,7.478.546.8,3.613,3.613,5.881,5.881-2.479-1.05-5.251-2.268-7.268-2.941-1.344-.84-1.89-1.134-3.613-2.311,1.008.714,2.184,1.512,3.151,2.269-6.175-1.932-8.99-1.3-6.721,3.277-15-9.83-30.162-19.912-45.5-30.582-7.646-1.638,9.7,9.83,6.511,10.082,27.6,19.492,3.823.84,16.467,7.478,18.4,11.342,36.043,26.129,54.317,39.572-.882-.462-1.512-.714-2.353-1.092-4.369-2.647-6.511-3.7-5.713-2.647-12.9-5.881-21.214-8.612-24.785-8.108-21.3-14.283-39.068-25.751-43.731-26.76,1.386.294,22.433,13.527,42.807,26.76a2.189,2.189,0,0,0-1.638,2.689c-.882,2.226,23.315,14.2,28.566,20.542-64.988-40.706,1.89,11.636-53.561-22.181,13.317,10.544,18.316,15.879,17.77,17.56l-7.73-6.217-18.484-6.007c11.384,7.142.042-3.361,22.307,13.149-7.351-3.655-31.465-15.5-41.463-20.416,7.478,4.789,14.115,9.494,19.786,13.821l-.294-.168.756.546A165.2,165.2,0,0,1,195.6,445.659c-16.425-10.8-36.758-25.205-6.637-2.226,3.865,2.394,6.889,4.117,10,5.923a15.146,15.146,0,0,1-2.815.168l-.084-.042c-14.745-12.141-35.455-23.9-36.674-26.129,1.932,3.655,13.779,12.561,27.6,22.223a6.835,6.835,0,0,0,.966,1.47l-1.806-.924-20.962-16.467-17.476-6.721c11.3,7.226-.378-3.025,21.887,13.4l-1.008-.546c-3.235-2.016-6.259-3.949-10.292-6.637,1.134.924,3.487,2.563,6.091,4.453-9.7-5.125-26.844-14.2-34.909-18.526,5.335,3.487,9.788,6.763,14.241,10-9.2-5.335-16.089-8.78-14.829-6.217l.5.5-.714-.546a33.056,33.056,0,0,0,5.041,4.915c5.923,7.982-31.339-14.283-1.68,9.326,4.411.546,26.718,8.78,67.55,37.556-7.688,4.831-92.587-47.3-75.7-25.877l23.063,17.56-32.515-16.341c19.366,18.232,71.121,44.823,82.841,59.947-16.593-8.78-36.254-23.693-63.475-41.715-8.276-4.369-6.427-.672-3.361,5.335l8.276,4.369c21.8,15.165,12.687,12.981,29.364,26.255-14.871-9.662-41.883-31.044-39.74-30.792-77.884-50.2,7.352,14.535-27.852-3.235l6.175,4.2c-28.188-15.8,4.915,9.7-33.271-14.073,28.482,20.458,21.971,11.636,39.782,22.895l-6.217-4.243,19.366,10.25c2.395,4.873,33.4,30.162,27.6,30.624l-41.043-25.289c-18.106-15.8,19.366,10.292,23.525,10.712-53.9-34.783-33.607-18.694-76.834-44.277C89.993,481.03,91.5,488.046,94.572,494.179c-7.982-7.856-38.48-28.44-36-23.567,50.452,40.076,35.119,17.77,86.58,55.662,2.479,4.831-2.058,7.814-42.975-20.962-11.258-10.46-34.909-21.172-56.208-39.572,8.528,8.948,41.085,33.313,18.316,20.374,18.988,13.611,35.329,25.835,55.83,38.48-14.073-3.907-94.982-60.157-90.655-51.587l8.906,5.587c-35.2-17.728,11.09,21.886-10.88,10.292l40.79,28.734c-2.268-.378-1.05,2.1-3.235,1.764-2.689-1.386-9.368-6.679-12.729-9.368-8.528-1.008,6.385,8.7,25.163,25.835l-.924-5.881c10.838,7.057,21.382,15.375,21.677,16.552,12.183,4.957-11.93-15.879,7.646-6.259,44.067,31.3,37.388,34.027,37.682,38.606-50.831-36.716,12.687,12.981-26.3-12.182,25.751,18.988,63.391,41.589,69.735,42.261,8.738,9.032,6.385,12.35-15.711.63-31.507-18.442-69.146-41.084-105.946-65.912-8.57-1.008,9.116,10.166,5.419,10.8,27.936,19.324,4.285.5,17.56,6.721,19.828,11.342,37.85,27.1,56.964,40.833-37.64-22.643,32.767,28.9,31,33.4-38.228-23.861-103.51-69.146-114.264-70.449,2.184.252,42.513,24.323,66.5,39.74l-1.554.966,42.3,27.726-6.175-4.159c22.055,11.678,16.719,5.377,32.053,11.594l23.651,18.82c-30.918-25.247,34.027,15.375,2.394-11.258,7.94-.168,43.479,22.223,82.127,50.747-26-15.627-22.937-9.536-52.469-27.894,38.69,28.524,34.027,23.441,74.818,52.133-33.1-17.56,61.249,49.36-.84,10.25-18.022-15.753-15.291-14.367-42.933-36.968-37.052-21.466-66.71-36.254-64.483-27.936,10.418,4.621,14.619,5.041,39.152,21.635-10.418-4.579-15.627-2.941-22.013-3.655l-41.337-29.91c43.815,34.741-31.507-10.5-14.367,7.52l-47.932-27.264,5.965,4.117c3.109,6.091-29.952-19.408-38.228-23.819,22.433,16.3,16.593,16.761,39.152,29.658,5.209-1.722,20.668,12.645,42.639,24.323-36.338-20.08,23.273,22.1,29.658,30.792-17.686-11.048-46.042-23.4-72.969-44.823-.462-4.579,47.008,29.364,30.5,12.561-24.491-8.444-32.767-20.836-80.867-48.184,2.647,1.428,11.678,7.1,15.627,10.964L64.7,610c12.267,8.276,21.677,15.039,28.524,20.5,3.613,7.267-68.894-44.571-22.853-9.494,22.559,12.9,28.986,13.653,69.23,41.211-21.55-10.544-84.354-51.041-70.533-35.623L45.589,607.939,26.6,602.351c11.552,6.931.21-3.529,22.643,12.855-7.52-3.529-32.053-14.955-42.3-19.786,29.49,18.316,46.588,36.3,38.984,33.187-14.7-13.149-39.488-26.255-40.707-28.776,4.2,8.486,60.283,43.563,75.322,53.309.672,1.218-3.823.672,11.468,10.5-21.55-18.61,3.235-5.419,36.043,15.585-6.007.168,24.407,18.148,31.213,23.567l8.57-.714c-14.157-12.015-82.127-50.663-51.461-38.018,26.634,16.845,41.8,23.063,63.685,38.27,10.586,9.158,6.973,9.956-11.384-2.478,53.939,34.825-11.216-2.395,38.942,33.019-13.947-8.234-25.541-11.8-18.526-4.747,5.083,3.151,38.858,25.163,18.232,8.192,29.07,21.634,22.055,19.618,46.294,39.614-4.579-5.041,19.954,11.468,32.137,19.744-31.549-18.484,18.652,16.971-6.637,2.731,12.267,8.276,37.01,21.424,50.747,28.65,6.889,5.461-1.428,1.008-4.159-.378,17.686,11.09,42.513,24.239,34.531,16.425.5,1.176-.966,2.227-10.46-4.579l-13.737-15.291c23.651,18.694,45.538,30.33,52.637,32.389-44.067-31.339-50.537-32.221-93.091-64.525,2.983-1.932,32.935,17.476,23.231,6.049-47.26-29.448-107.248-76.372-159.339-115.524,48.016,27.264-48.688-36.464,6.679-2.647l25.247,20c-5.209-8.486,15.165-.756,45.411,20.038,21.13,5.923,58.224,35.329,112.415,66.752l40.749,28.692c-20.29-16.131,13.191,6.049,21.3,10.376,2.016,3.739,36.59,28.314,20.08,19.534-12.519-4.831-70.155-46.924-76.918-52.343.672,9.284,29.742,30.876,23.609,34.741,0,0,17.308,10.124,36.254,23.651l-29.07-13.527-.63-1.3c-22.685-12.855-76.33-51.125-61-36.716,31.759,26.591,70.785,40.2,124.052,81.707-2.437,3.109-63.853-42.765-42.513-24.365l62.761,40.5c1.008.924,1.386,1.47,1.3,1.47l7.52,4.075c4.159,3.949,43.353,33.607,11.048,13.779,48.52,31.969-14.955-17.686,26.592,8.822-34.531-24.491-39.7-30.792-53.729-42.765l12.141.252c-25.121-17.812-13.779-7.31-12.435-4.789-33.481-22.222-67.214-48.94-61.5-49.528,20.206,16.047,46.588,28.188,54.485,35.96,41.085,25.373,1.806-4.411,29.49,10.292,27.6,22.6,29.364,18.274,58.518,39.992,1.47-1.05-22.685-20.962,7.856-.378-31.885-23.1-66.458-47.6-97.082-68.306-19.366-18.316,55.746,38.4,29.658,14.829l26.97,21.382c3.613-.756,59.4,37.766,55.031,29.154,15.711,11.006,29.154,21.677,40.16,27.516C580.025,923.088,560.743,904.94,548.14,892Zm416.6-225.8c-2.226-2.058-5.587-4.663-9.284-7.394,1.3.714,2.478,1.3,3.739,1.932C964.825,665.113,968.27,668.053,964.741,666.2Zm258.438,12.9-18.61-12.477c-1.764-1.932-3.613-3.823-5.671-5.839l3.319.714c-2.269-1.428-5.8-3.907-9.452-6.385-1.722-1.512-3.487-3.025-5.8-4.873l.5.378c12.224,10.376,45.705,28.986,44.907,33.649A88.854,88.854,0,0,1,1223.179,679.1ZM303.1,529.76c-10.586-6.007-21.467-15.669-32.011-21.3-2.227-1.764-3.739-3.025-5.587-4.537,10.712,6.6,20.584,12.561,32.557,21.13A51.566,51.566,0,0,1,303.1,529.76Zm20.584-1.89c3.865,2.226,8.15,4.873,13.107,8.15,6.637,4.7,7.057,5.587,5.671,5.5C335.24,536.314,329.19,531.861,323.687,527.87Zm-49.4-31.759c1.008-.126.5-1.3-2.226-4.075,7.814,5,14.661,9.242,13.233,7.015,5.8,3.487,11.216,6.637,16.341,9.662,8.78,6.973,17.6,14.031,21.214,17.686-.84-.546-1.218-.756-2.142-1.386,1.05.672,1.428,1.008,2.437,1.638.252.252.84.756,1.05,1.008-3.109-2.058-6.805-4.243-10.46-6.469-3.025-1.974-6.385-3.991-9.62-5.839-2.226-1.344-4.495-2.689-6.847-4.117C289.24,505.941,281.048,500.648,274.285,496.111Zm7.31,9.326c-3.571-2.647-7.184-5.335-10.418-7.814,3.109,2.016,6.259,4.033,9.578,6.217C279.956,503.841,281.132,504.849,281.595,505.437Zm59.442,48.31c-4.789-3.571-9.494-7.141-14.283-10.754-1.218-1.344-3.7-3.235-8.108-6.133-14.283-10.838-28.44-21.592-42.009-31.843,9.7,5.923,12.351,7.183,12.351,6.721,7.142,5,15.753,10.712,20.542,14.2.588.42.294.336,1.05.84l-.168-.168,1.3.882.882-.042c1.05.8,1.89,1.344,3.193,2.352l-2.983-2.352,5.713-.294,12.813,8.78c11.468,10.544-12.519-4.831-17.434-6.511,10.838,6.847,21,12.267,31.339,18.022,3.109,2.521,7.52,5.881,14.2,10.67-13.779-8.4-24.953-12.308-18.022-5.167,5.083,3.109,38.354,25.415,17.854,8.4,6.343,4.831,10.46,8.108,14.073,11.09C367.5,570.257,358.723,565.636,341.037,553.747Zm990.987,16.383c2.058,1.428,3.823,2.773,5.8,4.243l-5.209-3.4Zm13.695,10c-3.109-1.89-6.385-3.991-10.25-6.805l4.2,2.394C1341.727,577.23,1343.87,578.743,1345.719,580.129ZM220.808,450.364l.882.5.21.336Zm10.208-47.932c4.327,2.647,8.612,5.251,13.611,8.4-1.89-.882-3.823-1.806-5.629-2.647C236.015,406.045,232.864,403.692,231.016,402.432Zm-6.175-44.025c5.167,3.445,10.124,7.057,14.073,10.124.21,1.638-2.815,1.3-12.981-4.789Zm15.333-34.783.5.882c-.84-.8-2.647-2.142-3.865-3.193C237.99,322.111,239.04,322.867,240.174,323.623Zm50.536-17.182c14.031,8.864,28.776,18.232,43.773,28.1,1.638,1.47,4.285,3.319,5.293,4.621C326.628,331.9,310.2,320.011,290.71,306.442Zm164.632-52.931c-6.259-5.5,1.6-.168,10.124,5.755C462.568,257.754,459.208,255.863,455.343,253.511Zm49.78-89.773c1.89,1.6,3.949,3.277,6.932,5.5-5.545-3.613-8.444-5.377-12.477-7.94C501.048,161.848,502.771,162.6,505.123,163.738Zm137.789-29.364c1.176.462,3.151,1.848,4.621,2.647,10.712,7.73,23.735,16.678,33.1,23.315l.21.42c-1.722-.756-3.781-1.806-6.385-3.277C668.285,152.648,650.725,140.339,642.912,134.374Zm113.129-15.963c1.47.966,2.059,1.344,4.159,2.773-.294.084-1.554-.714-2.058-.84C757.008,119.335,756.714,119.041,756.041,118.411Zm145.476-3.277-3.4-1.68-6.3-4.663Zm517.8,213.783c3.823,1.638,9.788,5.251,17.349,10.334C1431.668,336.394,1425.913,332.949,1419.318,328.917Zm59.821,205.171c-.5-.294-.714-.42-1.26-.8-1.26-.84-1.975-1.47-3.109-2.269C1476.114,531.945,1477.878,533.247,1479.138,534.087Zm-47.68,6.427c-3.823-1.974-10.082-5.755-16.551-9.914C1420.284,533.709,1425.409,536.692,1431.458,540.515Zm-78.094,44.151c-1.3-.546-3.613-2.142-5.377-3.193-2.772-2.395-5.8-5.041-9.2-7.94C1344.374,577.734,1349.835,581.893,1353.364,584.666Zm-13.989,17.35-.126-.042-.084-.084Zm-13.107,12.561.294.252c-4.453-2.983-9.2-6.091-12.939-8.612l4.327.672C1328.369,614.45,1342.862,625.246,1326.268,614.576Zm-62.257-.042c-8.822-7.1-14.829-12.182-4.411-6.385,13.569,9.83,23.273,16.425,31.8,21.887-5.377-2.689,1.092,3.235-17.937-9.2C1270.859,618.693,1267.036,616.634,1264.011,614.534Zm-68.054-16.383c-3.823-3.151-6.763-5.839-9.284-8.192,1.05.336,1.723.42,1.723.126l.588.378c.336-.252-.168-1.176-.756-2.185.966.588,1.932,1.134,2.857,1.68l3.4,2.184-.378-.252c4.327,2.941,8.528,5.755,12.686,8.444,2.773,2.016,5.419,3.7,8.234,5.629,3.529,2.689,8.066,6.007,13.064,9.788C1201.754,598.445,1212,608.653,1195.957,598.151Zm57.552,44.529c-10.838-7.52-21.256-14.7-30.036-20.794-1.765-1.638.462-.5,4.117,1.764l9.2,5.965c-.378-.336-.966-.714-1.3-1.008l1.092.63C1245.906,635.79,1253.425,641.294,1253.509,642.68ZM970.328,671.792c-1.134-1.26-2.815-2.773-4.285-4.243,12.645,8.024,4.789,1.386.462-2.772,7.73,4.747,15.459,9.7,23.525,15,1.428,2.646,3.319,5.671-5.587,2.058C979.276,677.967,974.823,674.9,970.328,671.792Z" transform="translate(567.416 2233.453)" fill="#dde9fa"/>
    </g>
  </g>
</svg>
