<svg xmlns="http://www.w3.org/2000/svg" width="52" height="52" viewBox="0 0 52 52">
  <g id="Telegram" transform="translate(-368 -2867)">
    <path id="Icon_simple-telegram" data-name="Icon simple-telegram" d="M31.477,5.288,26.724,27.24c-.329,1.558-1.29,1.931-2.633,1.21L16.85,23.21l-3.5,3.309a1.859,1.859,0,0,1-1.448.721c-.948,0-.79-.348-1.106-1.223l-2.5-7.97L1.117,15.858c-1.554-.451-1.567-1.493.342-2.253L29.449,3.048c1.277-.554,2.5.309,2.014,2.227Z" transform="translate(376.447 2878.436)" fill="#fff"/>
    <path id="Icon_awesome-telegram" data-name="Icon awesome-telegram" d="M26,.563a26,26,0,1,0,26,26A26,26,0,0,0,26,.563ZM38.769,18.375,34.5,38.483c-.315,1.426-1.164,1.772-2.348,1.1l-6.5-4.791-3.135,3.019a1.641,1.641,0,0,1-1.31.64l.461-6.615L33.716,20.954c.524-.461-.115-.723-.807-.262L18.022,30.064l-6.416-2c-1.394-.44-1.426-1.394.294-2.065L36.966,16.33c1.164-.419,2.181.283,1.8,2.044Z" transform="translate(368 2866.438)" fill="#3490ee"/>
  </g>
</svg>
