<svg xmlns="http://www.w3.org/2000/svg" width="52" height="52" viewBox="0 0 52 52">
  <g id="twitter" transform="translate(-438 -2867)">
    <circle id="Ellipse_13" data-name="Ellipse 13" cx="26" cy="26" r="26" transform="translate(438 2867)" fill="#3490ee"/>
    <path id="Icon_awesome-twitter" data-name="Icon awesome-twitter" d="M26.518,9.363c.019.263.019.525.019.788,0,8.008-6.095,17.235-17.235,17.235A17.118,17.118,0,0,1,0,24.666a12.531,12.531,0,0,0,1.463.075,12.131,12.131,0,0,0,7.52-2.588,6.068,6.068,0,0,1-5.664-4.2,7.639,7.639,0,0,0,1.144.094,6.407,6.407,0,0,0,1.594-.206A6.058,6.058,0,0,1,1.2,11.895V11.82a6.1,6.1,0,0,0,2.738.769,6.066,6.066,0,0,1-1.875-8.1,17.218,17.218,0,0,0,12.49,6.339,6.838,6.838,0,0,1-.15-1.388A6.063,6.063,0,0,1,24.886,5.294,11.926,11.926,0,0,0,28.73,3.831a6.041,6.041,0,0,1-2.663,3.338,12.143,12.143,0,0,0,3.488-.938,13.021,13.021,0,0,1-3.038,3.132Z" transform="translate(449.222 2877.617)" fill="#fff"/>
  </g>
</svg>
